<?xml version="1.0" encoding="UTF-8" standalone="no"?>
<!-- Created with Inkscape (http://www.inkscape.org/) -->

<svg
   xmlns:dc="http://purl.org/dc/elements/1.1/"
   xmlns:cc="http://creativecommons.org/ns#"
   xmlns:rdf="http://www.w3.org/1999/02/22-rdf-syntax-ns#"
   xmlns:svg="http://www.w3.org/2000/svg"
   xmlns="http://www.w3.org/2000/svg"
   xmlns:sodipodi="http://sodipodi.sourceforge.net/DTD/sodipodi-0.dtd"
   xmlns:inkscape="http://www.inkscape.org/namespaces/inkscape"
   width="30mm"
   height="30mm"
   viewBox="0 0 30 30"
   version="1.1"
   id="svg19774"
   inkscape:version="0.92.4 (5da689c313, 2019-01-14)"
   sodipodi:docname="icone-adresses-ip-rd.svg">
  <defs
     id="defs19768">
    <clipPath
       clipPathUnits="userSpaceOnUse"
       id="clipPath4511-9-3-7-18">
      <path
         d="M 0,141.732 H 141.732 V 0 H 0 Z"
         id="path4509-6-7-1-5-0"
         inkscape:connector-curvature="0" />
    </clipPath>
    <clipPath
       clipPathUnits="userSpaceOnUse"
       id="clipPath10306-5-1-1-8">
      <path
         d="M 283.389,61.307 H 0 V 0 h 283.389 z"
         id="path10304-3-4-8-2"
         inkscape:connector-curvature="0" />
    </clipPath>
    <clipPath
       clipPathUnits="userSpaceOnUse"
       id="clipPath10266-2-8-7-5">
      <path
         d="M 283.389,61.307 H 0 V 0 h 283.389 z"
         id="path10264-4-5-5-4"
         inkscape:connector-curvature="0" />
    </clipPath>
    <clipPath
       clipPathUnits="userSpaceOnUse"
       id="clipPath11130-0-4-9-5">
      <path
         d="M 0.014999,124.631 H 133.159 V 0.015 H 0.014999 Z"
         id="path11128-7-0-7-9"
         inkscape:connector-curvature="0" />
    </clipPath>
    <clipPath
       clipPathUnits="userSpaceOnUse"
       id="clipPath11162-1-9-8-1">
      <path
         d="M 0.014999,124.631 H 133.159 V 0.015 H 0.014999 Z"
         id="path11160-8-7-5-3"
         inkscape:connector-curvature="0" />
    </clipPath>
    <linearGradient
       x1="0"
       y1="0"
       x2="1"
       y2="0"
       gradientUnits="userSpaceOnUse"
       gradientTransform="matrix(284.061,0,0,-284.061,1248.7045,3544.7446)"
       spreadMethod="pad"
       id="linearGradient28340">
      <stop
         style="stop-opacity:1;stop-color:#3c4296"
         offset="0"
         id="stop28336" />
      <stop
         style="stop-opacity:1;stop-color:#2c2963"
         offset="1"
         id="stop28338" />
    </linearGradient>
    <linearGradient
       x1="0"
       y1="0"
       x2="1"
       y2="0"
       gradientUnits="userSpaceOnUse"
       gradientTransform="matrix(284.061,0,0,-284.061,1248.7045,3539.9883)"
       spreadMethod="pad"
       id="linearGradient28320">
      <stop
         style="stop-opacity:1;stop-color:#3c4296"
         offset="0"
         id="stop28316" />
      <stop
         style="stop-opacity:1;stop-color:#2c2963"
         offset="1"
         id="stop28318" />
    </linearGradient>
  </defs>
  <sodipodi:namedview
     id="base"
     pagecolor="#ffffff"
     bordercolor="#666666"
     borderopacity="1.0"
     inkscape:pageopacity="0.0"
     inkscape:pageshadow="2"
     inkscape:zoom="1.6993555"
     inkscape:cx="245.50196"
     inkscape:cy="69.000993"
     inkscape:document-units="mm"
     inkscape:current-layer="layer1"
     showgrid="false"
     inkscape:window-width="1600"
     inkscape:window-height="877"
     inkscape:window-x="-8"
     inkscape:window-y="-8"
     inkscape:window-maximized="1"
     showguides="true"
     inkscape:guide-bbox="true"
     inkscape:snap-global="false">
    <sodipodi:guide
       position="15.053904,12.884564"
       orientation="1,0"
       id="guide4209"
       inkscape:locked="false" />
    <sodipodi:guide
       position="15.29716,21.9921"
       orientation="0,1"
       id="guide1195"
       inkscape:locked="false" />
    <sodipodi:guide
       position="11.443677,16.464882"
       orientation="1,0"
       id="guide1197"
       inkscape:locked="false" />
  </sodipodi:namedview>
  <metadata
     id="metadata19771">
    <rdf:RDF>
      <cc:Work
         rdf:about="">
        <dc:format>image/svg+xml</dc:format>
        <dc:type
           rdf:resource="http://purl.org/dc/dcmitype/StillImage" />
        <dc:title></dc:title>
      </cc:Work>
    </rdf:RDF>
  </metadata>
  <g
     inkscape:label="Calque 1"
     inkscape:groupmode="layer"
     id="layer1"
     transform="translate(0,-267)">
    <flowRoot
       xml:space="preserve"
       id="flowRoot4135"
       style="font-style:normal;font-variant:normal;font-weight:normal;font-stretch:normal;font-size:40px;line-height:1.25;font-family:'Cabin Condensed SemiBold';-inkscape-font-specification:'Cabin Condensed SemiBold, ';letter-spacing:0px;word-spacing:0px;fill:#000000;fill-opacity:1;stroke:none"
       transform="matrix(0.26458333,0,0,0.26458333,0,257)"><flowRegion
         id="flowRegion4137"><rect
           id="rect4139"
           width="9.1435785"
           height="74.440483"
           x="-378.08334"
           y="3.6554079" /></flowRegion><flowPara
         id="flowPara4141" /></flowRoot>    <flowRoot
       xml:space="preserve"
       id="flowRoot4143"
       style="font-style:normal;font-variant:normal;font-weight:normal;font-stretch:normal;font-size:40px;line-height:1.25;font-family:'Cabin Condensed SemiBold';-inkscape-font-specification:'Cabin Condensed SemiBold, ';letter-spacing:0px;word-spacing:0px;fill:#000000;fill-opacity:1;stroke:none"
       transform="matrix(0.26458333,0,0,0.26458333,0,257)"><flowRegion
         id="flowRegion4145"><rect
           id="rect4147"
           width="184.82126"
           height="141.95396"
           x="-464.51273"
           y="-66.669044" /></flowRegion><flowPara
         id="flowPara4149" /></flowRoot>    <flowRoot
       xml:space="preserve"
       id="flowRoot4135-2"
       style="font-style:normal;font-variant:normal;font-weight:normal;font-stretch:normal;font-size:40px;line-height:1.25;font-family:'Cabin Condensed SemiBold';-inkscape-font-specification:'Cabin Condensed SemiBold, ';letter-spacing:0px;word-spacing:0px;fill:#000000;fill-opacity:1;stroke:none"
       transform="matrix(0.26458333,0,0,0.26458333,-34.718492,257.20119)"><flowRegion
         id="flowRegion4137-1"><rect
           id="rect4139-9"
           width="9.1435785"
           height="74.440483"
           x="-378.08334"
           y="3.6554079" /></flowRegion><flowPara
         id="flowPara4141-3" /></flowRoot>    <flowRoot
       xml:space="preserve"
       id="flowRoot4143-0"
       style="font-style:normal;font-variant:normal;font-weight:normal;font-stretch:normal;font-size:40px;line-height:1.25;font-family:'Cabin Condensed SemiBold';-inkscape-font-specification:'Cabin Condensed SemiBold, ';letter-spacing:0px;word-spacing:0px;fill:#000000;fill-opacity:1;stroke:none"
       transform="matrix(0.26458333,0,0,0.26458333,-34.718492,257.20119)"><flowRegion
         id="flowRegion4145-1"><rect
           id="rect4147-2"
           width="184.82126"
           height="141.95396"
           x="-464.51273"
           y="-66.669044" /></flowRegion><flowPara
         id="flowPara4149-8" /></flowRoot>    <ellipse
       style="opacity:1;fill:#ffffff;fill-opacity:1;fill-rule:evenodd;stroke:#7f529f;stroke-width:0.77097452;stroke-linecap:round;stroke-linejoin:round;stroke-miterlimit:4;stroke-dasharray:none;stroke-dashoffset:0;stroke-opacity:1"
       id="path50498-8-9-0-4"
       cx="14.999991"
       cy="281.99976"
       rx="14.114504"
       ry="14.114531" />
    <path
       inkscape:connector-curvature="0"
       style="fill:#7f529f;fill-opacity:1;stroke:#ffffff;stroke-width:0.24689917;stroke-miterlimit:4;stroke-dasharray:none;stroke-opacity:1"
       d="M 13.677089,291.95285 C 7.9547298,284.6408 6.8925518,280.60029 6.8925518,277.913 c 0,-3.68101 3.3854552,-6.66503 7.5616522,-6.66503 4.176198,0 7.561653,2.98402 7.561653,6.66503 0,2.68729 -1.062176,6.7278 -6.784534,14.03985 -0.375522,0.47813 -1.178752,0.47811 -1.554234,0 z"
       id="path2-3-6-9"
       sodipodi:nodetypes="cssscc" />
    <g
       aria-label="IP"
       style="font-style:normal;font-variant:normal;font-weight:normal;font-stretch:condensed;font-size:10.58333302px;line-height:1.25;font-family:'Agency FB';-inkscape-font-specification:'Agency FB Condensed';letter-spacing:0px;word-spacing:0px;fill:#ffffff;fill-opacity:1;stroke:#ffffff;stroke-width:0.26458332;stroke-opacity:1"
       id="text1164-3-6-3"
       transform="matrix(1.1452622,0,0,1.1452622,54.666365,-15.405848)">
      <path
         d="m -38.285323,260.44882 h 1.17475 v -5.98295 h -1.17475 z"
         style="font-style:normal;font-variant:normal;font-weight:normal;font-stretch:normal;font-family:'Cabin Condensed SemiBold';-inkscape-font-specification:'Cabin Condensed SemiBold, ';fill:#ffffff;fill-opacity:1;stroke:#ffffff;stroke-width:0.2397891;stroke-opacity:1"
         id="path1166-6-3-6"
         inkscape:connector-curvature="0"
         sodipodi:nodetypes="ccccc" />
      <path
         d="m -35.742843,253.04049 h 2.06375 q 1.164167,0 1.820333,0.62442 0.66675,0.61383 0.66675,1.80975 0,1.19591 -0.66675,1.82033 -0.66675,0.62442 -1.820333,0.62442 h -0.889 v 2.52941 h -1.17475 z m 1.957917,3.84175 q 0.677333,0 1.026583,-0.33867 0.34925,-0.34925 0.34925,-1.06891 0,-0.6985 -0.34925,-1.04775 -0.34925,-0.34925 -1.026583,-0.34925 h -0.783167 v 2.80458 z"
         style="font-style:normal;font-variant:normal;font-weight:normal;font-stretch:normal;font-family:'Cabin Condensed SemiBold';-inkscape-font-specification:'Cabin Condensed SemiBold, ';fill:#ffffff;fill-opacity:1;stroke:#ffffff;stroke-width:0.26458332;stroke-opacity:1"
         id="path1168-3-2-5"
         inkscape:connector-curvature="0" />
      <path
         d="m -38.290738,253.92968 h 1.17475 v -0.94693 h -1.17475 z"
         style="font-style:normal;font-variant:normal;font-weight:normal;font-stretch:normal;font-size:10.58333302px;line-height:1.25;font-family:'Cabin Condensed SemiBold';-inkscape-font-specification:'Cabin Condensed SemiBold, ';letter-spacing:0px;word-spacing:0px;fill:#ffffff;fill-opacity:1;stroke:#ffffff;stroke-width:0.09459364;stroke-opacity:1"
         id="path1166-4-1-0-5"
         inkscape:connector-curvature="0" />
    </g>
    <path
       inkscape:connector-curvature="0"
       style="fill:#7f529f;fill-opacity:1;stroke:#ffffff;stroke-width:0.54400003;stroke-miterlimit:4;stroke-dasharray:none;stroke-opacity:1"
       d="m 17.3282,285.06109 -0.443641,-0.6283 c -0.125665,-0.20189 -0.08571,-0.46589 0.09269,-0.62506 0.394271,-0.3492 0.923891,-0.57922 1.403031,-0.77143 0.219234,-0.0885 0.470774,-0.004 0.596303,0.19791 l 0.3609,0.58378 c 0.420377,-0.0916 0.860445,-0.1077 1.294318,-0.039 l 0.32513,-0.60441 c 0.112229,-0.20866 0.358321,-0.30824 0.582739,-0.23391 0.483144,0.16251 0.949138,0.40865 1.365321,0.73446 0.187528,0.14723 0.244613,0.40759 0.13141,0.61804 l -0.325136,0.60442 c 0.2955,0.32596 0.525584,0.70021 0.68083,1.10148 l 0.685061,-0.0188 c 0.236055,-0.008 0.446728,0.15694 0.493756,0.38857 0.103685,0.50574 0.196483,1.07055 0.123366,1.5902 -0.03349,0.23479 -0.231944,0.4133 -0.470457,0.42185 l -0.761582,-0.02 c -0.132112,0.41369 -0.340166,0.80043 -0.613483,1.14047 l 0.435489,0.62623 c 0.125663,0.20189 0.08748,0.46688 -0.09175,0.62329 -0.394251,0.3492 -0.916674,0.58307 -1.395807,0.77529 -0.219235,0.0885 -0.470786,0.004 -0.596315,-0.19792 l -0.360897,-0.58379 c -0.420391,0.0916 -0.86044,0.10772 -1.294318,0.039 l -0.326099,0.60621 c -0.111296,0.20684 -0.355545,0.3074 -0.579964,0.23307 -0.48315,-0.1625 -0.950967,-0.40957 -1.368515,-0.73283 -0.187531,-0.14723 -0.244625,-0.40758 -0.131418,-0.61803 l 0.325142,-0.60443 c -0.29549,-0.32596 -0.525579,-0.70022 -0.680835,-1.10147 l -0.686023,0.0206 c -0.235982,0.008 -0.446714,-0.15694 -0.493844,-0.38839 -0.103694,-0.50574 -0.194683,-1.06959 -0.120619,-1.59103 0.03349,-0.2348 0.222609,-0.41833 0.461489,-0.42671 l 0.768763,0.0239 c 0.133089,-0.41549 0.341139,-0.80224 0.614451,-1.14228 z m 2.31963,0.75839 c -1.810017,0.81228 -1.079376,3.24403 0.878586,2.92418 1.81,-0.81227 1.079365,-3.24401 -0.878586,-2.92418 z"
       id="path1974-4-7-2"
       sodipodi:nodetypes="cccccccsccsccccccccccccccsccscccccccccccc"
       inkscape:transform-center-x="-0.10036215"
       inkscape:transform-center-y="0.29054351" />
  </g>
</svg>
