<?xml version="1.0" encoding="UTF-8" standalone="no"?>
<!-- Created with Inkscape (http://www.inkscape.org/) -->

<svg
   xmlns:dc="http://purl.org/dc/elements/1.1/"
   xmlns:cc="http://creativecommons.org/ns#"
   xmlns:rdf="http://www.w3.org/1999/02/22-rdf-syntax-ns#"
   xmlns:svg="http://www.w3.org/2000/svg"
   xmlns="http://www.w3.org/2000/svg"
   xmlns:sodipodi="http://sodipodi.sourceforge.net/DTD/sodipodi-0.dtd"
   xmlns:inkscape="http://www.inkscape.org/namespaces/inkscape"
   width="132.29166mm"
   height="40.589806mm"
   viewBox="0 0 132.29166 40.589806"
   version="1.1"
   id="svg1203"
   inkscape:version="0.92.4 (5da689c313, 2019-01-14)"
   sodipodi:docname="logo-appli-ln-vect.svg">
  <defs
     id="defs1197" />
  <sodipodi:namedview
     id="base"
     pagecolor="#ffffff"
     bordercolor="#666666"
     borderopacity="1.0"
     inkscape:pageopacity="0.0"
     inkscape:pageshadow="2"
     inkscape:zoom="0.83077626"
     inkscape:cx="263.34402"
     inkscape:cy="5.5846271"
     inkscape:document-units="mm"
     inkscape:current-layer="layer1"
     showgrid="false"
     showguides="true"
     inkscape:guide-bbox="true"
     inkscape:window-width="1600"
     inkscape:window-height="877"
     inkscape:window-x="-8"
     inkscape:window-y="-8"
     inkscape:window-maximized="1"
     fit-margin-top="0"
     fit-margin-left="0"
     fit-margin-right="0"
     fit-margin-bottom="0" />
  <metadata
     id="metadata1200">
    <rdf:RDF>
      <cc:Work
         rdf:about="">
        <dc:format>image/svg+xml</dc:format>
        <dc:type
           rdf:resource="http://purl.org/dc/dcmitype/StillImage" />
        <dc:title></dc:title>
      </cc:Work>
    </rdf:RDF>
  </metadata>
  <g
     inkscape:label="Calque 1"
     inkscape:groupmode="layer"
     id="layer1"
     transform="translate(-65.802079,-146.39302)">
    <path
       inkscape:connector-curvature="0"
       style="opacity:1;fill:#ffffff;fill-opacity:1;stroke:#4d4d4d;stroke-width:0.2072922;stroke-miterlimit:4;stroke-dasharray:none;stroke-opacity:1"
       d="m 114.04918,176.00436 0.81355,0.40556 c 0.24382,0.14005 0.35004,0.43695 0.25348,0.7025 -0.21486,0.5842 -0.63733,1.12013 -1.02839,1.58847 -0.17858,0.21485 -0.48764,0.26796 -0.73148,0.12782 l -0.70248,-0.40555 c -0.38627,0.33074 -0.83529,0.59386 -1.32534,0.76524 v 0.81115 c 0,0.28003 -0.20038,0.52144 -0.47557,0.56974 -0.59388,0.10134 -1.21671,0.10626 -1.8323,0 -0.27761,-0.0482 -0.48282,-0.28728 -0.48282,-0.56974 v -0.81115 c -0.49005,-0.17382 -0.93907,-0.4345 -1.32533,-0.76524 l -0.70248,0.40316 c -0.24141,0.14005 -0.55283,0.0867 -0.73148,-0.128 -0.39109,-0.46833 -0.80388,-1.00424 -1.01875,-1.58605 -0.0966,-0.26314 0.009,-0.56006 0.25349,-0.7025 l 0.80389,-0.40557 c -0.0942,-0.50454 -0.0942,-1.02357 0,-1.53053 l -0.80389,-0.40799 c -0.24382,-0.14005 -0.35247,-0.43695 -0.25349,-0.70009 0.21487,-0.5842 0.62766,-1.12014 1.01875,-1.58846 0.17858,-0.21486 0.48764,-0.26797 0.73148,-0.12781 l 0.70248,0.40556 c 0.38626,-0.33072 0.83528,-0.59387 1.32533,-0.76526 v -0.81355 c 0,-0.2776 0.19795,-0.51901 0.47316,-0.56727 0.59386,-0.10152 1.21912,-0.10628 1.8347,-0.002 0.27763,0.0482 0.48283,0.28728 0.48283,0.56974 v 0.81114 c 0.49005,0.17383 0.93907,0.43452 1.32534,0.76526 l 0.70248,-0.40556 c 0.2414,-0.14006 0.55283,-0.0869 0.73148,0.12781 0.39106,0.46832 0.80146,1.00426 1.01632,1.58846 0.0966,0.26314 0.002,0.56009 -0.24141,0.7025 l -0.81355,0.4056 c 0.0942,0.50695 0.0942,1.02598 0,1.53295 z m -2.83896,0.50937 c 1.42913,-1.85885 -0.69283,-3.98083 -2.55167,-2.55169 -1.42914,1.85886 0.69284,3.98082 2.55167,2.55169 z m 5.87587,4.41052 -0.19795,0.34522 c -0.0725,0.12781 -0.22693,0.18113 -0.36454,0.13019 -0.28484,-0.10627 -0.54557,-0.25832 -0.77491,-0.449 -0.11102,-0.0918 -0.14005,-0.2535 -0.0676,-0.37904 l 0.19796,-0.34521 c -0.16653,-0.19312 -0.29693,-0.41764 -0.38383,-0.66146 h -0.39833 c -0.1448,0 -0.27037,-0.10389 -0.29452,-0.24864 -0.0482,-0.28969 -0.0508,-0.59387 0,-0.89563 0.0241,-0.14479 0.14972,-0.25105 0.29452,-0.25105 h 0.39833 c 0.0869,-0.24382 0.21725,-0.46834 0.38383,-0.66147 l -0.19796,-0.34522 c -0.0725,-0.12544 -0.0459,-0.28727 0.0676,-0.37899 0.22934,-0.19072 0.49248,-0.3428 0.77491,-0.44904 0.13768,-0.0506 0.29212,0.001 0.36454,0.13037 l 0.19795,0.34522 c 0.25348,-0.0459 0.51178,-0.0459 0.76528,0 l 0.19795,-0.34522 c 0.0725,-0.128 0.22691,-0.18113 0.36452,-0.13037 0.28486,0.10627 0.54557,0.25832 0.77492,0.44904 0.11102,0.0917 0.14005,0.25348 0.0676,0.37899 l -0.19796,0.34522 c 0.16653,0.19313 0.29693,0.41765 0.38383,0.66147 h 0.39834 c 0.1448,0 0.27036,0.10389 0.29451,0.24864 0.0482,0.28969 0.0507,0.59387 0,0.89563 -0.0241,0.1448 -0.14973,0.25105 -0.29451,0.25105 h -0.39834 c -0.0869,0.24382 -0.21725,0.46834 -0.38383,0.66146 l 0.19796,0.34521 c 0.0725,0.12563 0.0459,0.2873 -0.0676,0.37904 -0.22935,0.19068 -0.49247,0.34278 -0.77492,0.449 -0.13768,0.0506 -0.2921,-0.002 -0.36452,-0.13019 l -0.19795,-0.34522 c -0.25107,0.0459 -0.5118,0.0459 -0.76528,0 z m -0.25348,-1.42189 c 0.92943,0.71457 1.9892,-0.34521 1.27465,-1.27463 -0.92943,-0.71457 -1.98922,0.34522 -1.27465,1.27463 z"
       id="path2-82-4"
       sodipodi:nodetypes="cccccccsccsccccccccccccccsccscccccccccccccccccccsccsccccccccccccccsccsccccccccccc" />
    <path
       style="display:inline;opacity:1;fill:#ffffff;fill-opacity:1;fill-rule:evenodd;stroke:#4d4d4d;stroke-width:0.2072922;stroke-linecap:round;stroke-linejoin:round;stroke-miterlimit:4;stroke-dasharray:none;stroke-dashoffset:0;stroke-opacity:1"
       d="m 88.053336,146.49717 c -0.319062,0.005 -0.601403,0.2392 -0.639058,0.55688 l -0.125709,1.06045 a 18.615362,18.615362 0 0 0 -1.164149,-0.0555 18.615362,18.615362 0 0 0 -1.737662,0.0868 l -0.150409,-1.01007 c -0.04749,-0.31907 -0.327113,-0.5492 -0.648842,-0.55346 -0.713361,-0.007 -1.414495,0.11375 -2.065141,0.33726 -0.301299,0.10505 -0.495406,0.41623 -0.431175,0.72955 l 0.2184,1.06607 a 18.615362,18.615362 0 0 0 -2.640367,0.94991 l -0.47911,-0.90882 c -0.150493,-0.2853 -0.490855,-0.41053 -0.795582,-0.30718 -0.675253,0.23014 -1.297075,0.57564 -1.836958,1.002 -0.249482,0.19896 -0.329457,0.55687 -0.165084,0.83129 l 0.519953,0.86798 a 18.615362,18.615362 0 0 0 -2.160522,1.68654 l -0.732484,-0.71658 c -0.23058,-0.22584 -0.59286,-0.24083 -0.851345,-0.0492 -0.572461,0.42569 -1.058668,0.945 -1.442223,1.51608 -0.176659,0.26575 -0.143345,0.63091 0.09709,0.84181 l 0.767702,0.67354 a 18.615362,18.615362 0 0 0 -1.618558,2.42417 l -0.892921,-0.44365 c -0.288931,-0.14347 -0.638228,-0.0461 -0.824932,0.21595 -0.413229,0.58151 -0.715715,1.22552 -0.904416,1.8871 -0.08609,0.30725 0.0584,0.64434 0.35218,0.77088 l 0.949172,0.40868 a 18.615362,18.615362 0 0 0 -0.721968,2.59756 l -1.047978,-0.1438 c -0.319598,-0.0439 -0.619729,0.15968 -0.713163,0.46761 -0.206337,0.68289 -0.287657,1.38967 -0.255575,2.07688 0.01636,0.31867 0.260603,0.59239 0.579384,0.61852 l 1.034772,0.0851 a 18.615362,18.615362 0 0 0 -0.01761,0.60677 18.615362,18.615362 0 0 0 0.151143,2.24295 l -1.01007,0.191 c -0.316984,0.0599 -0.536665,0.34824 -0.527535,0.66988 0.02131,0.71307 0.168565,1.409 0.417235,2.05046 0.116735,0.29687 0.435336,0.47865 0.745935,0.40232 l 1.005912,-0.24726 a 18.615362,18.615362 0 0 0 0.859171,2.2652 l -0.911998,0.49672 c -0.283335,0.15433 -0.404119,0.49643 -0.296662,0.79974 0.239235,0.67207 0.593335,1.28917 1.026945,1.82326 0.202287,0.24668 0.561101,0.32201 0.833247,0.15383 l 0.844252,-0.52142 a 18.615362,18.615362 0 0 0 1.574046,2.00669 l -0.695065,0.69825 c -0.227582,0.22866 -0.245669,0.59073 -0.05625,0.85085 0.420799,0.57608 0.935812,1.06677 1.50361,1.45519 0.26421,0.17894 0.629805,0.14865 0.842785,-0.09 l 0.661559,-0.74129 a 18.615362,18.615362 0 0 0 2.194273,1.4926 l -0.457833,0.95358 c -0.139564,0.29085 -0.03735,0.63898 0.227204,0.82224 0.587031,0.40536 1.234783,0.69893 1.898834,0.87873 0.308388,0.0819 0.643713,-0.067 0.766235,-0.36245 l 0.38006,-0.91689 a 18.615362,18.615362 0 0 0 2.804717,0.80928 l -0.150165,1.02548 c -0.04674,0.31918 0.154192,0.62124 0.461256,0.71732 0.681046,0.21245 1.386967,0.30024 2.074435,0.27416 0.318812,-0.0136 0.59454,-0.25546 0.623651,-0.574 l 0.09465,-1.03648 a 18.615362,18.615362 0 0 0 0.729793,0.0254 18.615362,18.615362 0 0 0 1.948482,-0.10908 l 0.155546,0.98977 c 0.05009,0.3187 0.331481,0.54714 0.653243,0.54808 0.713397,6.9e-4 1.413645,-0.12513 2.062451,-0.35389 0.300445,-0.10753 0.491946,-0.42018 0.425061,-0.73297 l -0.225248,-1.05678 a 18.615362,18.615362 0 0 0 2.485798,-0.91836 l 0.484247,0.92496 c 0.149617,0.28578 0.489562,0.41188 0.794605,0.30962 0.67595,-0.22804 1.29892,-0.5717 1.840138,-0.99637 0.250119,-0.1982 0.331043,-0.5559 0.167529,-0.8308 l -0.534627,-0.89855 a 18.615362,18.615362 0 0 0 1.971958,-1.53051 l 0.761588,0.73493 c 0.232153,0.22383 0.594449,0.23637 0.85159,0.043 0.569481,-0.42968 1.052121,-0.95237 1.431711,-1.52611 0.17481,-0.26697 0.13893,-0.63181 -0.10297,-0.84107 l -0.75351,-0.65202 a 18.615362,18.615362 0 0 0 1.38279,-1.97465 l 0.94795,0.4999 c 0.28536,0.15027 0.63704,0.0616 0.83006,-0.1959 0.42728,-0.57129 0.74515,-1.20782 0.94991,-1.8646 0.0935,-0.30506 -0.0425,-0.64548 -0.3331,-0.77919 l -0.96238,-0.44243 a 18.615362,18.615362 0 0 0 0.81246,-2.48531 l 1.03428,0.1893 c 0.31732,0.058 0.6262,-0.13212 0.73322,-0.43558 0.2364,-0.67309 0.34895,-1.37548 0.34753,-2.06343 -0.002,-0.3191 -0.2342,-0.60333 -0.5515,-0.6437 l -1.06314,-0.13525 a 18.615362,18.615362 0 0 0 0.0697,-1.38842 18.615362,18.615362 0 0 0 -0.0729,-1.45616 l 1.047,-0.14992 c 0.31933,-0.0458 0.55196,-0.32419 0.55688,-0.64591 0.0103,-0.71332 -0.10604,-1.415 -0.32601,-2.06685 -0.10345,-0.30199 -0.41367,-0.4979 -0.72735,-0.43509 l -1.06412,0.21204 a 18.615362,18.615362 0 0 0 -0.84205,-2.49265 l 0.95871,-0.46834 c 0.28986,-0.14161 0.42553,-0.4778 0.33164,-0.78556 -0.20918,-0.68207 -0.53529,-1.31424 -0.94477,-1.86704 -0.19113,-0.25547 -0.54634,-0.3467 -0.82567,-0.19076 l -0.93058,0.51897 a 18.615362,18.615362 0 0 0 -1.61171,-2.17642 l 0.75229,-0.72343 c 0.23259,-0.22356 0.25896,-0.58515 0.0753,-0.84939 -0.40798,-0.58523 -0.91225,-1.08709 -1.471327,-1.48796 -0.260211,-0.18458 -0.626298,-0.16244 -0.844497,0.0714 l -0.718055,0.76965 a 18.615362,18.615362 0 0 0 -2.152696,-1.54151 l 0.492073,-0.93328 c 0.150527,-0.28535 0.06175,-0.637 -0.195655,-0.83007 -0.571205,-0.42738 -1.207356,-0.74521 -1.864105,-0.95015 -0.30506,-0.0936 -0.645795,0.0425 -0.779442,0.33311 l -0.431419,0.93792 a 18.615362,18.615362 0 0 0 -2.770722,-0.8736 l 0.180491,-1.03649 c 0.05536,-0.31781 -0.137335,-0.62518 -0.441691,-0.72954 -0.675057,-0.23068 -1.378197,-0.33756 -2.066119,-0.33017 z"
       id="path32149-1-9-3-2"
       inkscape:connector-curvature="0" />
    <path
       inkscape:connector-curvature="0"
       id="path5587-5-72-2"
       style="fill:#478dcb;fill-opacity:1;fill-rule:nonzero;stroke:none;stroke-width:0.38334885;stroke-miterlimit:4;stroke-dasharray:none;stroke-opacity:1"
       d="m 73.422849,176.18985 c 0,1.2901 1.058082,2.33636 2.36414,2.33636 h 18.161976 c 1.776108,0 3.4039,-0.75849 3.904705,-2.37056 0.397814,-1.48125 -0.06254,-2.9182 -0.121517,-5.02806 -0.0035,-1.65654 0.577791,-3.27524 2.627127,-4.14812 0.141,-0.0697 0.141,-0.12635 -0.009,-0.20477 -1.242828,-0.52811 -2.744248,-1.59347 -2.686907,-3.79978 0.10282,-2.87604 0.587873,-3.74844 0.0728,-5.61942 -0.312524,-1.16697 -1.413216,-2.4309 -3.772798,-2.4309 H 75.787148 c -1.306062,0 -2.364146,1.04644 -2.364146,2.33637 v 18.9289"
       inkscape:export-xdpi="64.662277"
       inkscape:export-ydpi="64.662277" />
    <g
       id="g5589-3-0-8"
       transform="matrix(0.16243894,0,0,-0.16051786,77.561627,167.68703)"
       inkscape:export-xdpi="64.662277"
       inkscape:export-ydpi="64.662277">
      <path
         d="M 0,0 V -7.596 H -1.814 V 0 c 0,1.578 -0.021,2.582 -0.062,3.014 C -1.938,3.628 -2.102,4.12 -2.368,4.488 -2.962,5.329 -3.916,5.75 -5.228,5.75 -6.662,5.75 -7.8,5.195 -8.64,4.089 -9.071,3.516 -9.337,2.869 -9.439,2.152 -9.522,1.639 -9.563,0.532 -9.563,-1.169 v -6.427 h -1.813 V 7.041 h 1.813 V 4.428 c 0.267,0.818 0.769,1.495 1.507,2.029 0.84,0.615 1.865,0.922 3.075,0.922 1.783,0 3.116,-0.584 3.997,-1.753 C -0.533,5.031 -0.246,4.335 -0.123,3.535 -0.042,2.92 0,1.741 0,0"
         style="fill:#120d14;fill-opacity:1;fill-rule:nonzero;stroke:none"
         id="path5591-6-8-5"
         inkscape:connector-curvature="0" />
    </g>
    <g
       id="g5593-7-8-8"
       transform="matrix(0.16243894,0,0,-0.16051786,79.689255,167.83438)"
       inkscape:export-xdpi="64.662277"
       inkscape:export-ydpi="64.662277">
      <path
         d="M 0,0 V 1.07 L -0.922,0.857 c -0.39,-0.082 -1.599,-0.408 -3.629,-0.98 -1.127,-0.307 -1.916,-0.611 -2.367,-0.917 -0.759,-0.47 -1.138,-1.103 -1.138,-1.898 0,-0.652 0.225,-1.203 0.677,-1.652 0.533,-0.511 1.28,-0.765 2.244,-0.765 1.537,0 2.839,0.531 3.906,1.591 C -0.41,-2.947 0,-1.693 0,0 Z m 3.936,-5.232 v -1.446 c -1.332,0 -2.266,0.123 -2.798,0.369 C 0.379,-5.96 0,-5.273 0,-4.248 v 0.277 c -0.041,-0.082 -0.082,-0.183 -0.123,-0.304 -0.41,-0.852 -1.106,-1.523 -2.091,-2.009 -0.902,-0.446 -1.906,-0.67 -3.013,-0.67 -1.619,0 -2.839,0.471 -3.659,1.411 -0.636,0.736 -0.953,1.596 -0.953,2.577 0,1.513 0.769,2.68 2.306,3.497 0.984,0.512 2.91,1.095 5.781,1.75 L 0,2.68 v 0.736 c 0,2.249 -1.189,3.375 -3.566,3.375 -1.6,0 -2.686,-0.4 -3.26,-1.2 C -7.194,5.078 -7.39,4.289 -7.41,3.224 l -1.999,0.338 c 0.185,1.065 0.473,1.907 0.864,2.522 0.986,1.516 2.63,2.274 4.933,2.274 2.919,0 4.645,-0.953 5.18,-2.86 C 1.691,5.048 1.753,4.104 1.753,2.67 v -4.735 c 0,-1.394 0.091,-2.246 0.272,-2.552 0.243,-0.43 0.88,-0.636 1.911,-0.615"
         style="fill:#120d14;fill-opacity:1;fill-rule:nonzero;stroke:none"
         id="path5595-4-7-6"
         inkscape:connector-curvature="0" />
    </g>
    <g
       id="g5597-1-4-4"
       transform="matrix(0.16243894,0,0,-0.16051786,81.147787,166.7987)"
       inkscape:export-xdpi="64.662277"
       inkscape:export-ydpi="64.662277">
      <path
         d="m 0,0 v -10.023 c 0,-1.19 0.399,-1.785 1.199,-1.785 0.553,0 1.23,0.309 2.029,0.923 v -1.813 c -0.697,-0.473 -1.476,-0.708 -2.337,-0.708 -1.209,0 -1.978,0.358 -2.306,1.076 -0.226,0.492 -0.338,1.558 -0.338,3.198 V 0 h -3.075 v 1.538 h 3.075 V 7.779 H 0 V 1.538 H 3.228 V 0 H 0"
         style="fill:#120d14;fill-opacity:1;fill-rule:nonzero;stroke:none"
         id="path5599-4-5-9"
         inkscape:connector-curvature="0" />
    </g>
    <g
       id="g5601-0-9-9"
       transform="matrix(0.16243894,0,0,-0.16051786,82.336356,166.55199)"
       inkscape:export-xdpi="64.662277"
       inkscape:export-ydpi="64.662277">
      <path
         d="M -1.783,0 H 2e-4 V -14.668 H -1.783 Z M 0,0 Z M -1.783,6.242 H 2e-4 V 3.4436 H -1.783 Z"
         style="fill:#120d14;fill-opacity:1;fill-rule:nonzero;stroke:none"
         id="path5603-8-9-6"
         inkscape:connector-curvature="0" />
    </g>
    <g
       id="g5605-0-0-0"
       transform="matrix(0.16243894,0,0,-0.16051786,84.703904,167.75137)"
       inkscape:export-xdpi="64.662277"
       inkscape:export-ydpi="64.662277">
      <path
         d="m 0,0 c 0,1.332 -0.185,2.48 -0.554,3.443 -0.737,1.887 -2.112,2.83 -4.12,2.83 -1.394,0 -2.522,-0.502 -3.382,-1.507 C -8.979,3.68 -9.44,2.061 -9.44,-0.092 c 0,-1.969 0.461,-3.465 1.384,-4.489 0.819,-0.923 1.916,-1.384 3.289,-1.384 1.558,0 2.758,0.564 3.598,1.692 C -0.411,-3.208 -0.021,-1.783 0,0 Z m 1.937,0.215 c 0.019,-2.276 -0.58,-4.141 -1.799,-5.596 -1.22,-1.455 -2.855,-2.183 -4.905,-2.183 -2.07,0 -3.71,0.738 -4.919,2.214 -1.128,1.373 -1.692,3.136 -1.692,5.289 0,2.131 0.523,3.925 1.569,5.38 1.209,1.661 2.91,2.492 5.104,2.492 2.173,0 3.854,-0.79 5.043,-2.369 C 1.383,4.049 1.916,2.307 1.937,0.215"
         style="fill:#120d14;fill-opacity:1;fill-rule:nonzero;stroke:none"
         id="path5607-3-2-2"
         inkscape:connector-curvature="0" />
    </g>
    <g
       id="g5609-6-7-4"
       transform="matrix(0.16243894,0,0,-0.16051786,87.385771,167.68703)"
       inkscape:export-xdpi="64.662277"
       inkscape:export-ydpi="64.662277">
      <path
         d="M 0,0 V -7.596 H -1.814 V 0 c 0,1.578 -0.02,2.582 -0.061,3.014 C -1.937,3.628 -2.102,4.12 -2.367,4.488 -2.962,5.329 -3.914,5.75 -5.227,5.75 -6.662,5.75 -7.799,5.195 -8.64,4.089 -9.07,3.516 -9.336,2.869 -9.439,2.152 -9.521,1.639 -9.562,0.532 -9.562,-1.169 v -6.427 h -1.814 V 7.041 h 1.814 V 4.428 c 0.266,0.818 0.769,1.495 1.506,2.029 0.841,0.615 1.866,0.922 3.076,0.922 1.783,0 3.115,-0.584 3.997,-1.753 0.45,-0.595 0.737,-1.291 0.86,-2.091 C -0.041,2.92 0,1.741 0,0"
         style="fill:#120d14;fill-opacity:1;fill-rule:nonzero;stroke:none"
         id="path5611-1-4-8"
         inkscape:connector-curvature="0" />
    </g>
    <g
       id="g5613-4-2-4"
       transform="matrix(0.16243894,0,0,-0.16051786,89.513718,167.83438)"
       inkscape:export-xdpi="64.662277"
       inkscape:export-ydpi="64.662277">
      <path
         d="M 0,0 V 1.07 L -0.924,0.857 C -1.312,0.775 -2.522,0.449 -4.552,-0.123 -5.679,-0.43 -6.469,-0.734 -6.918,-1.04 c -0.76,-0.47 -1.139,-1.103 -1.139,-1.898 0,-0.652 0.226,-1.203 0.676,-1.652 0.533,-0.511 1.281,-0.765 2.245,-0.765 1.538,0 2.839,0.531 3.906,1.591 C -0.41,-2.947 0,-1.693 0,0 Z m 3.935,-5.232 v -1.446 c -1.333,0 -2.265,0.123 -2.799,0.369 C 0.379,-5.96 0,-5.273 0,-4.248 v 0.277 c -0.042,-0.082 -0.082,-0.183 -0.123,-0.304 -0.41,-0.852 -1.107,-1.523 -2.092,-2.009 -0.902,-0.446 -1.906,-0.67 -3.014,-0.67 -1.619,0 -2.838,0.471 -3.658,1.411 -0.635,0.736 -0.953,1.596 -0.953,2.577 0,1.513 0.769,2.68 2.306,3.497 0.984,0.512 2.911,1.095 5.78,1.75 L 0,2.68 v 0.736 c 0,2.249 -1.189,3.375 -3.567,3.375 -1.599,0 -2.687,-0.4 -3.259,-1.2 C -7.195,5.078 -7.391,4.289 -7.41,3.224 l -2,0.338 c 0.185,1.065 0.472,1.907 0.864,2.522 0.985,1.516 2.631,2.274 4.933,2.274 2.919,0 4.646,-0.953 5.179,-2.86 C 1.689,5.048 1.752,4.104 1.752,2.67 v -4.735 c 0,-1.394 0.09,-2.246 0.273,-2.552 0.241,-0.43 0.879,-0.636 1.91,-0.615"
         style="fill:#120d14;fill-opacity:1;fill-rule:nonzero;stroke:none"
         id="path5615-7-4-4"
         inkscape:connector-curvature="0" />
    </g>
    <path
       d="m 90.487549,168.90631 h 0.294661 v -3.48466 h -0.294661 z"
       style="fill:#120d14;fill-opacity:1;fill-rule:nonzero;stroke:none;stroke-width:0.16147555"
       id="path5617-9-3-4"
       inkscape:connector-curvature="0"
       inkscape:export-xdpi="64.662277"
       inkscape:export-ydpi="64.662277" />
    <g
       id="g5619-5-1-7"
       transform="matrix(0.16243894,0,0,-0.16051786,91.621204,167.49455)"
       inkscape:export-xdpi="64.662277"
       inkscape:export-ydpi="64.662277">
      <path
         d="M 0,0 H 9.317 C 9.131,1.537 8.627,2.685 7.805,3.443 6.983,4.201 5.954,4.58 4.721,4.58 3.446,4.58 2.38,4.166 1.528,3.336 0.674,2.506 0.164,1.393 0,0 Z m 9.712,-4.459 1.696,-0.461 c -0.349,-0.841 -0.812,-1.579 -1.387,-2.214 -1.233,-1.352 -2.907,-2.03 -5.023,-2.03 -2.301,0 -4.078,0.79 -5.332,2.369 -1.11,1.413 -1.664,3.228 -1.664,5.441 0,2.337 0.688,4.203 2.065,5.596 1.254,1.313 2.825,1.969 4.714,1.969 2.096,0 3.77,-0.8 5.024,-2.398 1.131,-1.477 1.664,-3.24 1.603,-5.289 L 0,-1.476 c -0.041,-1.108 0.114,-2.122 0.463,-3.045 0.781,-2.008 2.291,-3.012 4.532,-3.012 2.117,0 3.689,1.024 4.717,3.074"
         style="fill:#120d14;fill-opacity:1;fill-rule:nonzero;stroke:none"
         id="path5621-1-5-7"
         inkscape:connector-curvature="0" />
    </g>
    <g
       id="g5623-6-7-6"
       transform="matrix(0.16243894,0,0,-0.16051786,94.717937,167.52441)"
       inkscape:export-xdpi="64.662277"
       inkscape:export-ydpi="64.662277">
      <path
         d="M 0,0 1.536,-0.338 C 2.93,-0.645 3.962,-1.163 4.627,-1.891 5.294,-2.618 5.626,-3.484 5.626,-4.488 5.626,-5.678 5.185,-6.692 4.303,-7.533 3.3,-8.496 1.905,-8.978 0.122,-8.978 c -1.434,0 -2.664,0.349 -3.69,1.045 -0.942,0.656 -1.68,1.62 -2.214,2.89 l 1.785,0.615 c 0.204,-0.778 0.615,-1.434 1.23,-1.968 0.777,-0.635 1.741,-0.952 2.889,-0.952 1.189,0 2.123,0.286 2.799,0.861 0.615,0.533 0.921,1.21 0.921,2.029 0,1.312 -1.044,2.184 -3.135,2.614 l -1.753,0.369 c -2.542,0.573 -3.813,1.834 -3.813,3.782 0,1.024 0.328,1.895 0.985,2.613 0.901,0.984 2.326,1.477 4.273,1.477 1.373,0 2.517,-0.278 3.429,-0.831 C 4.739,5.012 5.339,4.182 5.626,3.075 L 3.874,2.645 C 3.71,3.362 3.29,3.916 2.614,4.306 2.018,4.653 1.249,4.828 0.307,4.828 c -2.256,0 -3.382,-0.82 -3.382,-2.461 0,-0.717 0.308,-1.27 0.921,-1.66 C -1.743,0.462 -1.026,0.226 0,0"
         style="fill:#120d14;fill-opacity:1;fill-rule:nonzero;stroke:none"
         id="path5625-1-7-7"
         inkscape:connector-curvature="0" />
    </g>
    <path
       d="m 75.722173,163.80681 h 0.383729 v -4.53862 h -0.383729 z"
       style="fill:#ffffff;fill-opacity:1;fill-rule:nonzero;stroke:none;stroke-width:0.16147555"
       id="path5627-7-5-9"
       inkscape:connector-curvature="0"
       inkscape:export-xdpi="64.662277"
       inkscape:export-ydpi="64.662277" />
    <g
       id="g5629-5-7-3"
       transform="matrix(0.16243894,0,0,-0.16051786,77.25738,160.74028)"
       inkscape:export-xdpi="64.662277"
       inkscape:export-ydpi="64.662277">
      <path
         d="M -2.323,0 H 3e-4 V -19.104 H -2.323 Z M 0,0 Z M -2.323,8.129 H 3e-4 V 4.485 H -2.323 Z"
         style="fill:#ffffff;fill-opacity:1;fill-rule:nonzero;stroke:none"
         id="path5631-9-0-1"
         inkscape:connector-curvature="0" />
    </g>
    <g
       id="g5633-7-9-7"
       transform="matrix(0.16243894,0,0,-0.16051786,80.106721,163.0352)"
       inkscape:export-xdpi="64.662277"
       inkscape:export-ydpi="64.662277">
      <path
         d="M 0,0 2.443,-0.561 C 2.229,-1.042 1.735,-1.802 0.961,-2.844 -0.535,-4.473 -2.59,-5.287 -5.207,-5.287 c -2.883,0 -5.112,1.028 -6.688,3.084 -1.389,1.815 -2.083,4.085 -2.083,6.809 0,3.123 0.855,5.593 2.564,7.409 1.708,1.815 3.897,2.723 6.568,2.723 3.711,0 6.14,-1.602 7.289,-4.805 L 0.24,9.412 c -0.907,2.135 -2.63,3.204 -5.166,3.204 -1.897,0 -3.431,-0.681 -4.606,-2.043 -1.255,-1.442 -1.882,-3.391 -1.882,-5.847 0,-2.003 0.401,-3.698 1.202,-5.087 1.067,-1.895 2.763,-2.843 5.086,-2.843 2.376,0 4.084,1.068 5.126,3.204"
         style="fill:#ffffff;fill-opacity:1;fill-rule:nonzero;stroke:none"
         id="path5635-1-2-7"
         inkscape:connector-curvature="0" />
    </g>
    <g
       id="g5637-7-1-0"
       transform="matrix(0.16243894,0,0,-0.16051786,81.180127,161.96809)"
       inkscape:export-xdpi="64.662277"
       inkscape:export-ydpi="64.662277">
      <path
         d="M 0,0 H 12.135 C 11.893,2.003 11.237,3.498 10.165,4.486 9.094,5.474 7.754,5.968 6.147,5.968 4.486,5.968 3.1,5.427 1.989,4.346 0.877,3.264 0.214,1.816 0,0 Z m 12.649,-5.807 2.209,-0.601 c -0.455,-1.095 -1.058,-2.056 -1.806,-2.883 -1.606,-1.763 -3.787,-2.644 -6.543,-2.644 -2.998,0 -5.313,1.028 -6.945,3.084 -1.445,1.842 -2.168,4.205 -2.168,7.089 0,3.044 0.896,5.473 2.69,7.289 1.632,1.708 3.68,2.563 6.141,2.563 2.73,0 4.911,-1.041 6.544,-3.124 1.471,-1.922 2.167,-4.219 2.087,-6.888 L 0,-1.922 c -0.054,-1.442 0.147,-2.763 0.602,-3.965 1.017,-2.617 2.985,-3.925 5.903,-3.925 2.757,0 4.805,1.335 6.144,4.005"
         style="fill:#ffffff;fill-opacity:1;fill-rule:nonzero;stroke:none"
         id="path5639-1-5-8"
         inkscape:connector-curvature="0" />
    </g>
    <g
       id="g5641-3-30-4"
       transform="matrix(0.16243894,0,0,-0.16051786,86.560251,162.21885)"
       inkscape:export-xdpi="64.662277"
       inkscape:export-ydpi="64.662277">
      <path
         d="M 0,0 V -9.893 H -2.363 V 0 c 0,2.056 -0.027,3.364 -0.08,3.925 -0.08,0.801 -0.294,1.441 -0.64,1.922 -0.775,1.094 -2.017,1.642 -3.725,1.642 -1.87,0 -3.352,-0.721 -4.446,-2.163 -0.56,-0.747 -0.908,-1.589 -1.041,-2.523 -0.107,-0.667 -0.161,-2.109 -0.161,-4.325 v -8.371 h -2.362 V 9.171 h 2.362 V 5.767 c 0.347,1.068 1.002,1.949 1.963,2.643 1.095,0.801 2.429,1.202 4.005,1.202 2.323,0 4.058,-0.761 5.207,-2.283 C -0.694,6.554 -0.32,5.646 -0.16,4.605 -0.054,3.805 0,2.269 0,0"
         style="fill:#ffffff;fill-opacity:1;fill-rule:nonzero;stroke:none"
         id="path5643-5-7-3"
         inkscape:connector-curvature="0" />
    </g>
    <g
       id="g5645-1-48-0"
       transform="matrix(0.16243894,0,0,-0.16051786,89.416263,163.0352)"
       inkscape:export-xdpi="64.662277"
       inkscape:export-ydpi="64.662277">
      <path
         d="M 0,0 2.443,-0.561 C 2.229,-1.042 1.735,-1.802 0.962,-2.844 -0.534,-4.473 -2.59,-5.287 -5.207,-5.287 c -2.883,0 -5.113,1.028 -6.687,3.084 -1.389,1.815 -2.083,4.085 -2.083,6.809 0,3.123 0.854,5.593 2.563,7.409 1.709,1.815 3.898,2.723 6.568,2.723 3.711,0 6.141,-1.602 7.289,-4.805 L 0.24,9.412 c -0.908,2.135 -2.63,3.204 -5.166,3.204 -1.896,0 -3.431,-0.681 -4.606,-2.043 -1.255,-1.442 -1.882,-3.391 -1.882,-5.847 0,-2.003 0.4,-3.698 1.201,-5.087 1.068,-1.895 2.764,-2.843 5.086,-2.843 2.377,0 4.086,1.068 5.127,3.204"
         style="fill:#ffffff;fill-opacity:1;fill-rule:nonzero;stroke:none"
         id="path5647-8-8-8"
         inkscape:connector-curvature="0" />
    </g>
    <g
       id="g5649-5-66-4"
       transform="matrix(0.16243894,0,0,-0.16051786,90.4895,161.96809)"
       inkscape:export-xdpi="64.662277"
       inkscape:export-ydpi="64.662277">
      <path
         d="M 0,0 H 12.135 C 11.893,2.003 11.237,3.498 10.166,4.486 9.094,5.474 7.754,5.968 6.148,5.968 4.487,5.968 3.1,5.427 1.989,4.346 0.877,3.264 0.214,1.816 0,0 Z m 12.649,-5.807 2.211,-0.601 c -0.457,-1.095 -1.059,-2.056 -1.808,-2.883 -1.606,-1.763 -3.786,-2.644 -6.544,-2.644 -2.997,0 -5.311,1.028 -6.943,3.084 -1.445,1.842 -2.168,4.205 -2.168,7.089 0,3.044 0.896,5.473 2.689,7.289 1.633,1.708 3.68,2.563 6.142,2.563 2.729,0 4.91,-1.041 6.544,-3.124 1.471,-1.922 2.167,-4.219 2.088,-6.888 H 0 c -0.053,-1.442 0.147,-2.763 0.603,-3.965 1.017,-2.617 2.984,-3.925 5.903,-3.925 2.756,0 4.805,1.335 6.143,4.005"
         style="fill:#ffffff;fill-opacity:1;fill-rule:nonzero;stroke:none"
         id="path5651-8-7-3"
         inkscape:connector-curvature="0" />
    </g>
    <g
       id="g5653-6-5-3"
       transform="matrix(0.16243894,0,0,-0.16051786,94.42555,162.00678)"
       inkscape:export-xdpi="64.662277"
       inkscape:export-ydpi="64.662277">
      <path
         d="m 0,0 2.002,-0.44 c 1.815,-0.401 3.158,-1.075 4.025,-2.023 0.867,-0.948 1.301,-2.076 1.301,-3.384 0,-1.549 -0.573,-2.871 -1.721,-3.965 -1.308,-1.255 -3.125,-1.883 -5.447,-1.883 -1.869,0 -3.471,0.455 -4.807,1.362 -1.228,0.854 -2.189,2.109 -2.882,3.765 l 2.322,0.801 c 0.267,-1.015 0.801,-1.869 1.602,-2.563 1.014,-0.828 2.269,-1.242 3.765,-1.242 1.548,0 2.764,0.374 3.645,1.122 0.8,0.694 1.201,1.575 1.201,2.643 0,1.708 -1.362,2.844 -4.085,3.404 l -2.282,0.481 c -3.313,0.747 -4.967,2.389 -4.967,4.926 0,1.334 0.426,2.469 1.281,3.404 1.175,1.281 3.03,1.923 5.567,1.923 1.788,0 3.277,-0.361 4.466,-1.082 C 6.174,6.528 6.955,5.447 7.328,4.005 L 5.046,3.444 C 4.832,4.378 4.285,5.1 3.404,5.607 2.629,6.061 1.629,6.288 0.4,6.288 c -2.937,0 -4.406,-1.068 -4.406,-3.204 0,-0.935 0.401,-1.656 1.202,-2.163 C -2.271,0.601 -1.336,0.294 0,0"
         style="fill:#ffffff;fill-opacity:1;fill-rule:nonzero;stroke:none"
         id="path5655-6-1-7"
         inkscape:connector-curvature="0" />
    </g>
    <g
       id="g5657-3-18-1"
       transform="matrix(0.16243894,0,0,-0.16051786,77.342818,174.31352)"
       inkscape:export-xdpi="64.662277"
       inkscape:export-ydpi="64.662277">
      <path
         d="m 0,0 c 0,-2.668 -2.166,-4.835 -4.833,-4.835 -2.668,0 -4.834,2.167 -4.834,4.835 0,2.67 2.166,4.836 4.834,4.836 C -2.166,4.836 0,2.67 0,0"
         style="fill:#ffffff;fill-opacity:1;fill-rule:nonzero;stroke:none"
         id="path5659-4-1-3"
         inkscape:connector-curvature="0" />
    </g>
    <g
       id="g5661-1-8-6"
       transform="matrix(0.16243894,0,0,-0.16051786,80.726912,171.93064)"
       inkscape:export-xdpi="64.662277"
       inkscape:export-ydpi="64.662277">
      <path
         d="m 0,0 h -8.213 v -5.664 h 7.922 v -3.343 h -7.922 v -11.22 H -11.77 V 3.343 H 0 V 0"
         style="fill:#ffffff;fill-opacity:1;fill-rule:nonzero;stroke:none"
         id="path5663-2-8-3"
         inkscape:connector-curvature="0" />
    </g>
    <g
       id="g5665-5-5-1"
       transform="matrix(0.16243894,0,0,-0.16051786,81.974119,173.13114)"
       inkscape:export-xdpi="64.662277"
       inkscape:export-ydpi="64.662277">
      <path
         d="m 0,0 h 1.13 c 3.369,0 5.053,1.287 5.053,3.861 0,2.412 -1.639,3.618 -4.915,3.618 H 0 Z m 4.427,-2.703 7.297,-10.045 H 7.373 L 0.641,-3.1 H 0 v -9.648 h -3.557 v 23.57 h 4.168 c 3.115,0 5.363,-0.586 6.747,-1.756 1.527,-1.303 2.29,-3.022 2.29,-5.159 0,-1.669 -0.479,-3.105 -1.435,-4.306 -0.957,-1.2 -2.218,-1.969 -3.786,-2.304"
         style="fill:#ffffff;fill-opacity:1;fill-rule:nonzero;stroke:none"
         id="path5667-0-3-2"
         inkscape:connector-curvature="0" />
    </g>
    <g
       aria-label="Application de gestion    des adresses IP"
       style="font-style:normal;font-variant:normal;font-weight:normal;font-stretch:normal;font-size:8.39526081px;line-height:1.25;font-family:'Bell Gothic Std';-inkscape-font-specification:'Bell Gothic Std';letter-spacing:0px;word-spacing:0px;fill:#ffffff;fill-opacity:1;stroke:none;stroke-width:0.20988151"
       id="text16154-2">
      <path
         d="m 122.42151,163.41728 h -2.11722 l -0.54637,1.85378 h -0.95616 l 2.0977,-6.82972 h 0.91713 l 2.0977,6.82972 h -0.94641 z m -0.24392,-0.82933 -0.81957,-2.77091 -0.80981,2.77091 z"
         style="font-style:normal;font-variant:normal;font-weight:normal;font-stretch:normal;font-size:9.75674343px;line-height:0;font-family:'Cabin Condensed';-inkscape-font-specification:'Cabin Condensed, ';fill:#ffffff;fill-opacity:1;stroke-width:0.20988151"
         id="path1965" />
      <path
         d="m 126.60776,160.39269 q 0.57565,0 1.00494,0.33172 0.43906,0.32198 0.66346,0.88787 0.23416,0.56589 0.23416,1.26837 0,1.09276 -0.49759,1.79525 -0.49759,0.69272 -1.40497,0.69272 -0.37076,0 -0.69273,-0.12683 -0.31221,-0.1366 -0.53662,-0.39027 v 2.78067 h -0.84884 v -7.14194 h 0.65371 l 0.0781,0.57565 q 0.51711,-0.67321 1.34643,-0.67321 z m -0.15611,4.22467 q 0.55614,0 0.86835,-0.45857 0.32197,-0.45857 0.32197,-1.27814 0,-0.8098 -0.32197,-1.26837 -0.31221,-0.45857 -0.86835,-0.45857 -0.2927,0 -0.56589,0.19514 -0.27319,0.19513 -0.44881,0.5854 -0.16586,0.39027 -0.16586,0.9464 0,0.57565 0.16586,0.96592 0.17562,0.39027 0.43905,0.58541 0.27319,0.18538 0.57565,0.18538 z"
         style="font-style:normal;font-variant:normal;font-weight:normal;font-stretch:normal;font-size:9.75674343px;line-height:0;font-family:'Cabin Condensed';-inkscape-font-specification:'Cabin Condensed, ';fill:#ffffff;fill-opacity:1;stroke-width:0.20988151"
         id="path1967" />
      <path
         d="m 131.35274,160.39269 q 0.57565,0 1.00494,0.33172 0.43906,0.32198 0.66346,0.88787 0.23416,0.56589 0.23416,1.26837 0,1.09276 -0.49759,1.79525 -0.49759,0.69272 -1.40497,0.69272 -0.37076,0 -0.69273,-0.12683 -0.31222,-0.1366 -0.53662,-0.39027 v 2.78067 h -0.84884 v -7.14194 h 0.6537 l 0.0781,0.57565 q 0.51711,-0.67321 1.34643,-0.67321 z m -0.15611,4.22467 q 0.55613,0 0.86835,-0.45857 0.32197,-0.45857 0.32197,-1.27814 0,-0.8098 -0.32197,-1.26837 -0.31222,-0.45857 -0.86835,-0.45857 -0.2927,0 -0.56589,0.19514 -0.27319,0.19513 -0.44881,0.5854 -0.16587,0.39027 -0.16587,0.9464 0,0.57565 0.16587,0.96592 0.17562,0.39027 0.43905,0.58541 0.27319,0.18538 0.57565,0.18538 z"
         style="font-style:normal;font-variant:normal;font-weight:normal;font-stretch:normal;font-size:9.75674343px;line-height:0;font-family:'Cabin Condensed';-inkscape-font-specification:'Cabin Condensed, ';fill:#ffffff;fill-opacity:1;stroke-width:0.20988151"
         id="path1969" />
      <path
         d="m 135.08302,165.36862 q -0.54638,0 -0.80981,-0.33172 -0.26344,-0.33173 -0.26344,-0.81957 v -6.26383 h 0.84884 v 5.75648 q 0,0.42929 0.039,0.63419 0.0488,0.19513 0.17562,0.26343 0.12684,0.0683 0.40978,0.0683 l -0.10732,0.69272 z"
         style="font-style:normal;font-variant:normal;font-weight:normal;font-stretch:normal;font-size:9.75674343px;line-height:0;font-family:'Cabin Condensed';-inkscape-font-specification:'Cabin Condensed, ';fill:#ffffff;fill-opacity:1;stroke-width:0.20988151"
         id="path1971" />
      <path
         d="m 136.26861,158.44134 h 0.84884 v 0.96591 h -0.84884 z m 0,2.04891 h 0.84884 v 4.78081 h -0.84884 z"
         style="font-style:normal;font-variant:normal;font-weight:normal;font-stretch:normal;font-size:9.75674343px;line-height:0;font-family:'Cabin Condensed';-inkscape-font-specification:'Cabin Condensed, ';fill:#ffffff;fill-opacity:1;stroke-width:0.20988151"
         id="path1973" />
      <path
         d="m 140.14326,165.36862 q -1.09276,0 -1.65865,-0.68297 -0.56589,-0.69273 -0.56589,-1.77572 0,-1.12203 0.56589,-1.81476 0.56589,-0.70248 1.67816,-0.70248 0.59516,0 1.06349,0.24391 l -0.1366,0.75127 q -0.43905,-0.23416 -0.91713,-0.23416 -0.6537,0 -1.02446,0.45857 -0.361,0.44881 -0.361,1.25862 0,0.80981 0.37076,1.27813 0.38051,0.46833 1.04397,0.46833 0.50735,0 0.89762,-0.23417 l 0.11708,0.76103 q -0.19513,0.0976 -0.48784,0.15611 -0.2927,0.0683 -0.5854,0.0683 z"
         style="font-style:normal;font-variant:normal;font-weight:normal;font-stretch:normal;font-size:9.75674343px;line-height:0;font-family:'Cabin Condensed';-inkscape-font-specification:'Cabin Condensed, ';fill:#ffffff;fill-opacity:1;stroke-width:0.20988151"
         id="path1975" />
      <path
         d="m 142.92164,165.36862 q -0.54637,0 -0.89762,-0.39027 -0.35124,-0.39026 -0.35124,-0.99518 0,-0.89762 0.75127,-1.28789 0.75127,-0.40003 1.67816,-0.41954 0,-0.62443 -0.18538,-0.86835 -0.18538,-0.24392 -0.62443,-0.24392 -0.56589,0 -1.15129,0.43905 l -0.10733,-0.71224 q 0.61468,-0.49759 1.42449,-0.49759 0.77078,0 1.14153,0.44881 0.37076,0.43905 0.37076,1.42448 v 1.39521 q 0,0.55614 0.078,0.7903 0.0781,0.22441 0.34149,0.22441 h 0.10732 l -0.10732,0.69272 h -0.18538 q -0.44881,0 -0.66346,-0.16586 -0.21464,-0.16586 -0.35124,-0.53662 -0.2244,0.32197 -0.55613,0.51711 -0.33173,0.18537 -0.71225,0.18537 z m 0.26344,-0.69272 q 0.23416,0 0.48783,-0.17563 0.25368,-0.18537 0.4293,-0.47808 v -1.14154 q -0.75127,0.039 -1.14154,0.29271 -0.39027,0.24392 -0.39027,0.76102 0,0.74152 0.61468,0.74152 z"
         style="font-style:normal;font-variant:normal;font-weight:normal;font-stretch:normal;font-size:9.75674343px;line-height:0;font-family:'Cabin Condensed';-inkscape-font-specification:'Cabin Condensed, ';fill:#ffffff;fill-opacity:1;stroke-width:0.20988151"
         id="path1977" />
      <path
         d="m 147.53399,165.36862 q -0.55613,0 -0.82932,-0.33172 -0.26343,-0.33173 -0.26343,-0.80981 v -3.06362 h -0.66346 l 0.078,-0.67322 h 0.58541 v -1.18056 l 0.84883,-0.0878 v 1.26837 h 1.03422 v 0.67322 h -1.03422 v 2.72213 q 0,0.43905 0.15611,0.61467 0.16587,0.17563 0.56589,0.17563 h 0.30246 l -0.078,0.69272 z"
         style="font-style:normal;font-variant:normal;font-weight:normal;font-stretch:normal;font-size:9.75674343px;line-height:0;font-family:'Cabin Condensed';-inkscape-font-specification:'Cabin Condensed, ';fill:#ffffff;fill-opacity:1;stroke-width:0.20988151"
         id="path1979" />
      <path
         d="m 149.0934,158.44134 h 0.84883 v 0.96591 h -0.84883 z m 0,2.04891 h 0.84883 v 4.78081 h -0.84883 z"
         style="font-style:normal;font-variant:normal;font-weight:normal;font-stretch:normal;font-size:9.75674343px;line-height:0;font-family:'Cabin Condensed';-inkscape-font-specification:'Cabin Condensed, ';fill:#ffffff;fill-opacity:1;stroke-width:0.20988151"
         id="path1981" />
      <path
         d="m 152.82169,165.36862 q -0.64394,0 -1.11227,-0.32197 -0.46832,-0.33173 -0.722,-0.89762 -0.24392,-0.56589 -0.24392,-1.26838 0,-0.70248 0.24392,-1.26837 0.25368,-0.56589 0.722,-0.88787 0.46833,-0.33172 1.11227,-0.33172 0.63419,0 1.10251,0.33172 0.46833,0.32198 0.71224,0.88787 0.24392,0.56589 0.24392,1.26837 0,0.70249 -0.24392,1.26838 -0.24391,0.56589 -0.71224,0.89762 -0.46832,0.32197 -1.10251,0.32197 z m 0,-0.75126 q 0.56589,0 0.87811,-0.45857 0.31221,-0.45857 0.31221,-1.27814 0,-0.81956 -0.31221,-1.26837 -0.31222,-0.45857 -0.87811,-0.45857 -0.5854,0 -0.89762,0.45857 -0.31222,0.44881 -0.31222,1.26837 0,0.82933 0.31222,1.2879 0.31222,0.44881 0.89762,0.44881 z"
         style="font-style:normal;font-variant:normal;font-weight:normal;font-stretch:normal;font-size:9.75674343px;line-height:0;font-family:'Cabin Condensed';-inkscape-font-specification:'Cabin Condensed, ';fill:#ffffff;fill-opacity:1;stroke-width:0.20988151"
         id="path1983" />
      <path
         d="m 157.70646,160.39269 q 0.74152,0 1.13179,0.5854 0.40002,0.57565 0.40002,1.56108 v 2.73189 h -0.84884 v -2.62457 q 0,-0.76102 -0.2244,-1.12202 -0.21465,-0.37076 -0.6537,-0.37076 -0.32197,0 -0.59516,0.18538 -0.27319,0.17562 -0.45857,0.49759 v 3.43438 h -0.84884 v -4.78081 h 0.722 l 0.0585,0.59516 q 0.20489,-0.32197 0.54638,-0.50735 0.35124,-0.18537 0.77078,-0.18537 z"
         style="font-style:normal;font-variant:normal;font-weight:normal;font-stretch:normal;font-size:9.75674343px;line-height:0;font-family:'Cabin Condensed';-inkscape-font-specification:'Cabin Condensed, ';fill:#ffffff;fill-opacity:1;stroke-width:0.20988151"
         id="path1985" />
      <path
         d="m 165.8256,157.9535 v 7.31756 h -0.75127 l -0.0683,-0.43906 q -0.2244,0.26344 -0.53662,0.40003 -0.31222,0.13659 -0.68297,0.13659 -0.55614,0 -0.99519,-0.32197 -0.43905,-0.33173 -0.69273,-0.89762 -0.25367,-0.56589 -0.25367,-1.25862 0,-0.67321 0.23416,-1.2391 0.24392,-0.57565 0.68297,-0.91714 0.44881,-0.34148 1.02446,-0.34148 0.71224,0 1.19032,0.49759 v -2.93678 z m -1.95135,6.66386 q 0.53662,0 0.85859,-0.41954 0.32198,-0.4293 0.32198,-1.30741 0,-0.84883 -0.32198,-1.28789 -0.32197,-0.44881 -0.85859,-0.44881 -0.33173,0 -0.59516,0.22441 -0.26343,0.2244 -0.41954,0.62443 -0.14635,0.39027 -0.14635,0.88786 0,0.46833 0.14635,0.86835 0.15611,0.39027 0.41954,0.62443 0.27319,0.23417 0.59516,0.23417 z"
         style="font-style:normal;font-variant:normal;font-weight:normal;font-stretch:normal;font-size:9.75674343px;line-height:0;font-family:'Cabin Condensed';-inkscape-font-specification:'Cabin Condensed, ';fill:#ffffff;fill-opacity:1;stroke-width:0.20988151"
         id="path1987" />
      <path
         d="m 168.89105,165.36862 q -0.722,0 -1.23911,-0.33172 -0.50735,-0.34149 -0.77078,-0.91714 -0.25368,-0.57565 -0.25368,-1.27813 0,-0.67322 0.23417,-1.22935 0.24391,-0.56589 0.69272,-0.88787 0.45857,-0.33172 1.083,-0.33172 0.80006,0 1.29765,0.53662 0.50735,0.53662 0.50735,1.48302 0,0.16587 -0.039,0.45857 h -2.90751 q 0.0293,0.84883 0.41954,1.28789 0.40003,0.43905 1.03422,0.43905 0.30246,0 0.63419,-0.0683 0.34148,-0.078 0.59516,-0.21464 l 0.078,0.76102 q -0.53662,0.2927 -1.36594,0.2927 z m 0.68297,-3.09288 q 0,-0.48784 -0.24392,-0.7903 -0.23416,-0.31222 -0.68297,-0.31222 -0.43905,0 -0.73176,0.27319 -0.28294,0.27319 -0.38051,0.82933 z"
         style="font-style:normal;font-variant:normal;font-weight:normal;font-stretch:normal;font-size:9.75674343px;line-height:0;font-family:'Cabin Condensed';-inkscape-font-specification:'Cabin Condensed, ';fill:#ffffff;fill-opacity:1;stroke-width:0.20988151"
         id="path1989" />
      <path
         d="m 174.65545,167.71024 q -0.84883,0 -1.38546,-0.35124 -0.52686,-0.34149 -0.52686,-0.9464 0,-0.69273 0.76103,-1.20984 -0.44881,-0.21465 -0.44881,-0.6537 0,-0.22441 0.13659,-0.39027 0.13659,-0.17562 0.39027,-0.27319 -0.361,-0.25368 -0.55613,-0.68297 -0.19514,-0.4293 -0.19514,-0.94641 0,-0.52686 0.20489,-0.9464 0.20489,-0.4293 0.58541,-0.67322 0.39027,-0.24391 0.90737,-0.24391 0.62444,0 1.05373,0.35124 0.38052,-0.35124 0.80981,-0.35124 0.12684,0 0.24392,0.0195 l -0.0878,0.68297 q -0.0976,-0.0195 -0.19513,-0.0195 -0.2049,0 -0.40979,0.0878 0.28295,0.45857 0.28295,1.09275 0,0.52687 -0.20489,0.96592 -0.2049,0.4293 -0.59517,0.69273 -0.38051,0.25368 -0.89762,0.25368 -0.27318,0 -0.48783,-0.0683 -0.18538,0.0781 -0.18538,0.2244 0,0.12684 0.12684,0.20489 0.12683,0.0683 0.44881,0.16587 l 0.67321,0.20489 q 0.60492,0.18538 0.94641,0.37076 0.35124,0.17562 0.5171,0.41954 0.16587,0.25367 0.16587,0.62443 0,0.66346 -0.57565,1.02446 -0.57565,0.37075 -1.50254,0.37075 z m -0.12684,-4.21491 q 0.41954,0 0.65371,-0.33173 0.23416,-0.34149 0.23416,-0.89762 0,-0.52686 -0.23416,-0.85859 -0.23417,-0.33173 -0.65371,-0.33173 -0.41954,0 -0.6537,0.33173 -0.23416,0.32197 -0.23416,0.85859 0,0.55613 0.23416,0.89762 0.23416,0.33173 0.6537,0.33173 z m 0.18538,3.52218 q 0.52687,0 0.83908,-0.16586 0.32197,-0.16587 0.32197,-0.48784 0,-0.26343 -0.19513,-0.41954 -0.19513,-0.14635 -0.71224,-0.30246 l -0.78054,-0.23416 q -0.66346,0.41954 -0.66346,0.87811 0,0.361 0.31222,0.54638 0.32197,0.18537 0.8781,0.18537 z"
         style="font-style:normal;font-variant:normal;font-weight:normal;font-stretch:normal;font-size:9.75674343px;line-height:0;font-family:'Cabin Condensed';-inkscape-font-specification:'Cabin Condensed, ';fill:#ffffff;fill-opacity:1;stroke-width:0.20988151"
         id="path1991" />
      <path
         d="m 179.20042,165.36862 q -0.722,0 -1.23911,-0.33172 -0.50735,-0.34149 -0.77078,-0.91714 -0.25367,-0.57565 -0.25367,-1.27813 0,-0.67322 0.23416,-1.22935 0.24392,-0.56589 0.69273,-0.88787 0.45856,-0.33172 1.08299,-0.33172 0.80006,0 1.29765,0.53662 0.50735,0.53662 0.50735,1.48302 0,0.16587 -0.039,0.45857 h -2.90751 q 0.0293,0.84883 0.41954,1.28789 0.40002,0.43905 1.03421,0.43905 0.30246,0 0.63419,-0.0683 0.34149,-0.078 0.59516,-0.21464 l 0.078,0.76102 q -0.53662,0.2927 -1.36594,0.2927 z m 0.68297,-3.09288 q 0,-0.48784 -0.24392,-0.7903 -0.23416,-0.31222 -0.68297,-0.31222 -0.43905,0 -0.73175,0.27319 -0.28295,0.27319 -0.38052,0.82933 z"
         style="font-style:normal;font-variant:normal;font-weight:normal;font-stretch:normal;font-size:9.75674343px;line-height:0;font-family:'Cabin Condensed';-inkscape-font-specification:'Cabin Condensed, ';fill:#ffffff;fill-opacity:1;stroke-width:0.20988151"
         id="path1993" />
      <path
         d="m 182.73678,165.36862 q -0.83908,0 -1.45376,-0.39027 l 0.10733,-0.85859 q 0.62443,0.48784 1.28789,0.48784 0.35124,0 0.54638,-0.14635 0.20489,-0.14635 0.20489,-0.4293 0,-0.21465 -0.0976,-0.35124 -0.0878,-0.1366 -0.30246,-0.26343 -0.21465,-0.12684 -0.66346,-0.33173 -0.52686,-0.24392 -0.77078,-0.55614 -0.24392,-0.31221 -0.24392,-0.80981 0,-0.5854 0.40978,-0.95616 0.40979,-0.37075 1.10252,-0.37075 0.70248,0 1.22935,0.31221 l -0.10733,0.7903 q -0.26343,-0.17562 -0.49759,-0.25368 -0.23416,-0.0878 -0.55614,-0.0878 -0.34148,0 -0.53662,0.14635 -0.19513,0.14635 -0.19513,0.40979 0,0.26343 0.16586,0.40002 0.17562,0.1366 0.67322,0.361 0.69273,0.31222 0.97567,0.63419 0.28295,0.31222 0.28295,0.82932 0,0.67322 -0.41954,1.05373 -0.41954,0.38051 -1.14154,0.38051 z"
         style="font-style:normal;font-variant:normal;font-weight:normal;font-stretch:normal;font-size:9.75674343px;line-height:0;font-family:'Cabin Condensed';-inkscape-font-specification:'Cabin Condensed, ';fill:#ffffff;fill-opacity:1;stroke-width:0.20988151"
         id="path1995" />
      <path
         d="m 186.38946,165.36862 q -0.55613,0 -0.82932,-0.33172 -0.26343,-0.33173 -0.26343,-0.80981 v -3.06362 h -0.66346 l 0.078,-0.67322 h 0.58541 v -1.18056 l 0.84883,-0.0878 v 1.26837 h 1.03422 v 0.67322 h -1.03422 v 2.72213 q 0,0.43905 0.15611,0.61467 0.16587,0.17563 0.56589,0.17563 H 187.17 l -0.078,0.69272 z"
         style="font-style:normal;font-variant:normal;font-weight:normal;font-stretch:normal;font-size:9.75674343px;line-height:0;font-family:'Cabin Condensed';-inkscape-font-specification:'Cabin Condensed, ';fill:#ffffff;fill-opacity:1;stroke-width:0.20988151"
         id="path1997" />
      <path
         d="m 187.94886,158.44134 h 0.84884 v 0.96591 h -0.84884 z m 0,2.04891 h 0.84884 v 4.78081 h -0.84884 z"
         style="font-style:normal;font-variant:normal;font-weight:normal;font-stretch:normal;font-size:9.75674343px;line-height:0;font-family:'Cabin Condensed';-inkscape-font-specification:'Cabin Condensed, ';fill:#ffffff;fill-opacity:1;stroke-width:0.20988151"
         id="path1999" />
      <path
         d="m 191.67716,165.36862 q -0.64394,0 -1.11227,-0.32197 -0.46832,-0.33173 -0.72199,-0.89762 -0.24392,-0.56589 -0.24392,-1.26838 0,-0.70248 0.24392,-1.26837 0.25367,-0.56589 0.72199,-0.88787 0.46833,-0.33172 1.11227,-0.33172 0.63419,0 1.10251,0.33172 0.46833,0.32198 0.71225,0.88787 0.24392,0.56589 0.24392,1.26837 0,0.70249 -0.24392,1.26838 -0.24392,0.56589 -0.71225,0.89762 -0.46832,0.32197 -1.10251,0.32197 z m 0,-0.75126 q 0.56589,0 0.87811,-0.45857 0.31222,-0.45857 0.31222,-1.27814 0,-0.81956 -0.31222,-1.26837 -0.31222,-0.45857 -0.87811,-0.45857 -0.5854,0 -0.89762,0.45857 -0.31221,0.44881 -0.31221,1.26837 0,0.82933 0.31221,1.2879 0.31222,0.44881 0.89762,0.44881 z"
         style="font-style:normal;font-variant:normal;font-weight:normal;font-stretch:normal;font-size:9.75674343px;line-height:0;font-family:'Cabin Condensed';-inkscape-font-specification:'Cabin Condensed, ';fill:#ffffff;fill-opacity:1;stroke-width:0.20988151"
         id="path2001" />
      <path
         d="m 196.56193,160.39269 q 0.74151,0 1.13178,0.5854 0.40003,0.57565 0.40003,1.56108 v 2.73189 h -0.84884 v -2.62457 q 0,-0.76102 -0.2244,-1.12202 -0.21465,-0.37076 -0.6537,-0.37076 -0.32198,0 -0.59516,0.18538 -0.27319,0.17562 -0.45857,0.49759 v 3.43438 h -0.84884 v -4.78081 h 0.722 l 0.0585,0.59516 q 0.20489,-0.32197 0.54638,-0.50735 0.35124,-0.18537 0.77078,-0.18537 z"
         style="font-style:normal;font-variant:normal;font-weight:normal;font-stretch:normal;font-size:9.75674343px;line-height:0;font-family:'Cabin Condensed';-inkscape-font-specification:'Cabin Condensed, ';fill:#ffffff;fill-opacity:1;stroke-width:0.20988151"
         id="path2003" />
      <path
         d="m 128.64707,168.44758 v 7.31755 h -0.75127 l -0.0683,-0.43905 q -0.22441,0.26343 -0.53663,0.40003 -0.31221,0.13659 -0.68297,0.13659 -0.55613,0 -0.99519,-0.32197 -0.43905,-0.33173 -0.69272,-0.89762 -0.25368,-0.56589 -0.25368,-1.25862 0,-0.67322 0.23416,-1.23911 0.24392,-0.57565 0.68297,-0.91713 0.44881,-0.34149 1.02446,-0.34149 0.71224,0 1.19033,0.4976 v -2.93678 z m -1.95135,6.66385 q 0.53662,0 0.8586,-0.41954 0.32197,-0.4293 0.32197,-1.3074 0,-0.84884 -0.32197,-1.28789 -0.32198,-0.44881 -0.8586,-0.44881 -0.33173,0 -0.59516,0.2244 -0.26343,0.22441 -0.41954,0.62443 -0.14635,0.39027 -0.14635,0.88787 0,0.46832 0.14635,0.86835 0.15611,0.39027 0.41954,0.62443 0.27319,0.23416 0.59516,0.23416 z"
         style="font-style:normal;font-variant:normal;font-weight:normal;font-stretch:normal;font-size:9.75674343px;line-height:0;font-family:'Cabin Condensed';-inkscape-font-specification:'Cabin Condensed, ';fill:#ffffff;fill-opacity:1;stroke-width:0.20988151"
         id="path2005" />
      <path
         d="m 131.71252,175.8627 q -0.722,0 -1.23911,-0.33173 -0.50735,-0.34148 -0.77078,-0.91713 -0.25368,-0.57565 -0.25368,-1.27814 0,-0.67321 0.23417,-1.22935 0.24391,-0.56589 0.69272,-0.88786 0.45857,-0.33173 1.083,-0.33173 0.80006,0 1.29765,0.53662 0.50735,0.53662 0.50735,1.48303 0,0.16586 -0.039,0.45856 h -2.90751 q 0.0293,0.84884 0.41954,1.28789 0.40003,0.43906 1.03422,0.43906 0.30246,0 0.63419,-0.0683 0.34148,-0.078 0.59516,-0.21465 l 0.0781,0.76103 q -0.53662,0.2927 -1.36594,0.2927 z m 0.68297,-3.09289 q 0,-0.48783 -0.24392,-0.79029 -0.23416,-0.31222 -0.68297,-0.31222 -0.43905,0 -0.73176,0.27319 -0.28294,0.27319 -0.38051,0.82932 z"
         style="font-style:normal;font-variant:normal;font-weight:normal;font-stretch:normal;font-size:9.75674343px;line-height:0;font-family:'Cabin Condensed';-inkscape-font-specification:'Cabin Condensed, ';fill:#ffffff;fill-opacity:1;stroke-width:0.20988151"
         id="path2007" />
      <path
         d="m 135.24888,175.8627 q -0.83908,0 -1.45375,-0.39027 l 0.10732,-0.85859 q 0.62443,0.48783 1.28789,0.48783 0.35124,0 0.54638,-0.14635 0.20489,-0.14635 0.20489,-0.42929 0,-0.21465 -0.0976,-0.35125 -0.0878,-0.13659 -0.30246,-0.26343 -0.21464,-0.12684 -0.66345,-0.33173 -0.52687,-0.24392 -0.77079,-0.55613 -0.24392,-0.31222 -0.24392,-0.80981 0,-0.58541 0.40979,-0.95616 0.40978,-0.37076 1.10251,-0.37076 0.70248,0 1.22935,0.31222 l -0.10733,0.79029 q -0.26343,-0.17562 -0.49759,-0.25367 -0.23416,-0.0878 -0.55613,-0.0878 -0.34149,0 -0.53662,0.14635 -0.19514,0.14635 -0.19514,0.40978 0,0.26343 0.16587,0.40003 0.17562,0.13659 0.67321,0.361 0.69273,0.31221 0.97567,0.63419 0.28295,0.31221 0.28295,0.82932 0,0.67321 -0.41954,1.05373 -0.41954,0.38051 -1.14154,0.38051 z"
         style="font-style:normal;font-variant:normal;font-weight:normal;font-stretch:normal;font-size:9.75674343px;line-height:0;font-family:'Cabin Condensed';-inkscape-font-specification:'Cabin Condensed, ';fill:#ffffff;fill-opacity:1;stroke-width:0.20988151"
         id="path2009" />
      <path
         d="m 140.34907,175.8627 q -0.54638,0 -0.89762,-0.39027 -0.35125,-0.39027 -0.35125,-0.99519 0,-0.89762 0.75127,-1.28789 0.75127,-0.40002 1.67816,-0.41954 0,-0.62443 -0.18538,-0.86835 -0.18537,-0.24392 -0.62443,-0.24392 -0.56589,0 -1.15129,0.43906 l -0.10733,-0.71224 q 0.61468,-0.4976 1.42449,-0.4976 0.77078,0 1.14154,0.44881 0.37075,0.43906 0.37075,1.42449 v 1.39521 q 0,0.55613 0.0781,0.7903 0.078,0.2244 0.34148,0.2244 h 0.10733 l -0.10733,0.69273 h -0.18538 q -0.44881,0 -0.66345,-0.16586 -0.21465,-0.16587 -0.35125,-0.53662 -0.2244,0.32197 -0.55613,0.5171 -0.33173,0.18538 -0.71224,0.18538 z m 0.26343,-0.69273 q 0.23416,0 0.48784,-0.17562 0.25367,-0.18538 0.42929,-0.47808 v -1.14154 q -0.75127,0.039 -1.14154,0.2927 -0.39027,0.24392 -0.39027,0.76103 0,0.74151 0.61468,0.74151 z"
         style="font-style:normal;font-variant:normal;font-weight:normal;font-stretch:normal;font-size:9.75674343px;line-height:0;font-family:'Cabin Condensed';-inkscape-font-specification:'Cabin Condensed, ';fill:#ffffff;fill-opacity:1;stroke-width:0.20988151"
         id="path2011" />
      <path
         d="m 147.3602,168.44758 v 7.31755 h -0.75127 l -0.0683,-0.43905 q -0.2244,0.26343 -0.53662,0.40003 -0.31221,0.13659 -0.68297,0.13659 -0.55613,0 -0.99519,-0.32197 -0.43905,-0.33173 -0.69272,-0.89762 -0.25368,-0.56589 -0.25368,-1.25862 0,-0.67322 0.23416,-1.23911 0.24392,-0.57565 0.68297,-0.91713 0.44881,-0.34149 1.02446,-0.34149 0.71224,0 1.19032,0.4976 v -2.93678 z m -1.95135,6.66385 q 0.53662,0 0.8586,-0.41954 0.32197,-0.4293 0.32197,-1.3074 0,-0.84884 -0.32197,-1.28789 -0.32198,-0.44881 -0.8586,-0.44881 -0.33173,0 -0.59516,0.2244 -0.26343,0.22441 -0.41954,0.62443 -0.14635,0.39027 -0.14635,0.88787 0,0.46832 0.14635,0.86835 0.15611,0.39027 0.41954,0.62443 0.27319,0.23416 0.59516,0.23416 z"
         style="font-style:normal;font-variant:normal;font-weight:normal;font-stretch:normal;font-size:9.75674343px;line-height:0;font-family:'Cabin Condensed';-inkscape-font-specification:'Cabin Condensed, ';fill:#ffffff;fill-opacity:1;stroke-width:0.20988151"
         id="path2013" />
      <path
         d="m 148.45479,170.98433 h 0.69272 l 0.10733,0.80005 q 0.32197,-0.46832 0.60492,-0.68297 0.2927,-0.21465 0.61467,-0.21465 0.12684,0 0.22441,0.0293 l -0.0878,0.96592 q -0.12684,-0.0293 -0.29271,-0.0293 -0.32197,0 -0.60491,0.16586 -0.28295,0.15611 -0.40979,0.37076 v 3.37583 h -0.84883 z"
         style="font-style:normal;font-variant:normal;font-weight:normal;font-stretch:normal;font-size:9.75674343px;line-height:0;font-family:'Cabin Condensed';-inkscape-font-specification:'Cabin Condensed, ';fill:#ffffff;fill-opacity:1;stroke-width:0.20988151"
         id="path2015" />
      <path
         d="m 153.2269,175.8627 q -0.722,0 -1.2391,-0.33173 -0.50736,-0.34148 -0.77079,-0.91713 -0.25367,-0.57565 -0.25367,-1.27814 0,-0.67321 0.23416,-1.22935 0.24392,-0.56589 0.69273,-0.88786 0.45857,-0.33173 1.083,-0.33173 0.80005,0 1.29764,0.53662 0.50735,0.53662 0.50735,1.48303 0,0.16586 -0.039,0.45856 h -2.90751 q 0.0293,0.84884 0.41954,1.28789 0.40002,0.43906 1.03421,0.43906 0.30246,0 0.63419,-0.0683 0.34149,-0.078 0.59516,-0.21465 l 0.0781,0.76103 q -0.53662,0.2927 -1.36595,0.2927 z m 0.68297,-3.09289 q 0,-0.48783 -0.24391,-0.79029 -0.23417,-0.31222 -0.68298,-0.31222 -0.43905,0 -0.73175,0.27319 -0.28295,0.27319 -0.38052,0.82932 z"
         style="font-style:normal;font-variant:normal;font-weight:normal;font-stretch:normal;font-size:9.75674343px;line-height:0;font-family:'Cabin Condensed';-inkscape-font-specification:'Cabin Condensed, ';fill:#ffffff;fill-opacity:1;stroke-width:0.20988151"
         id="path2017" />
      <path
         d="m 156.76326,175.8627 q -0.83908,0 -1.45375,-0.39027 l 0.10732,-0.85859 q 0.62444,0.48783 1.28789,0.48783 0.35125,0 0.54638,-0.14635 0.20489,-0.14635 0.20489,-0.42929 0,-0.21465 -0.0976,-0.35125 -0.0878,-0.13659 -0.30246,-0.26343 -0.21465,-0.12684 -0.66346,-0.33173 -0.52687,-0.24392 -0.77078,-0.55613 -0.24392,-0.31222 -0.24392,-0.80981 0,-0.58541 0.40978,-0.95616 0.40978,-0.37076 1.10251,-0.37076 0.70249,0 1.22935,0.31222 l -0.10732,0.79029 q -0.26343,-0.17562 -0.4976,-0.25367 -0.23416,-0.0878 -0.55613,-0.0878 -0.34149,0 -0.53662,0.14635 -0.19514,0.14635 -0.19514,0.40978 0,0.26343 0.16587,0.40003 0.17562,0.13659 0.67321,0.361 0.69273,0.31221 0.97568,0.63419 0.28294,0.31221 0.28294,0.82932 0,0.67321 -0.41954,1.05373 -0.41954,0.38051 -1.14154,0.38051 z"
         style="font-style:normal;font-variant:normal;font-weight:normal;font-stretch:normal;font-size:9.75674343px;line-height:0;font-family:'Cabin Condensed';-inkscape-font-specification:'Cabin Condensed, ';fill:#ffffff;fill-opacity:1;stroke-width:0.20988151"
         id="path2019" />
      <path
         d="m 160.26959,175.8627 q -0.83908,0 -1.45375,-0.39027 l 0.10732,-0.85859 q 0.62443,0.48783 1.28789,0.48783 0.35125,0 0.54638,-0.14635 0.20489,-0.14635 0.20489,-0.42929 0,-0.21465 -0.0976,-0.35125 -0.0878,-0.13659 -0.30245,-0.26343 -0.21465,-0.12684 -0.66346,-0.33173 -0.52687,-0.24392 -0.77079,-0.55613 -0.24391,-0.31222 -0.24391,-0.80981 0,-0.58541 0.40978,-0.95616 0.40978,-0.37076 1.10251,-0.37076 0.70249,0 1.22935,0.31222 l -0.10732,0.79029 q -0.26344,-0.17562 -0.4976,-0.25367 -0.23416,-0.0878 -0.55613,-0.0878 -0.34149,0 -0.53662,0.14635 -0.19514,0.14635 -0.19514,0.40978 0,0.26343 0.16587,0.40003 0.17562,0.13659 0.67321,0.361 0.69273,0.31221 0.97568,0.63419 0.28294,0.31221 0.28294,0.82932 0,0.67321 -0.41954,1.05373 -0.41954,0.38051 -1.14154,0.38051 z"
         style="font-style:normal;font-variant:normal;font-weight:normal;font-stretch:normal;font-size:9.75674343px;line-height:0;font-family:'Cabin Condensed';-inkscape-font-specification:'Cabin Condensed, ';fill:#ffffff;fill-opacity:1;stroke-width:0.20988151"
         id="path2021" />
      <path
         d="m 164.52719,175.8627 q -0.722,0 -1.23911,-0.33173 -0.50735,-0.34148 -0.77078,-0.91713 -0.25367,-0.57565 -0.25367,-1.27814 0,-0.67321 0.23416,-1.22935 0.24392,-0.56589 0.69273,-0.88786 0.45856,-0.33173 1.083,-0.33173 0.80005,0 1.29764,0.53662 0.50735,0.53662 0.50735,1.48303 0,0.16586 -0.039,0.45856 h -2.90751 q 0.0293,0.84884 0.41954,1.28789 0.40002,0.43906 1.03421,0.43906 0.30246,0 0.63419,-0.0683 0.34149,-0.078 0.59516,-0.21465 l 0.0781,0.76103 q -0.53663,0.2927 -1.36595,0.2927 z m 0.68297,-3.09289 q 0,-0.48783 -0.24392,-0.79029 -0.23416,-0.31222 -0.68297,-0.31222 -0.43905,0 -0.73175,0.27319 -0.28295,0.27319 -0.38052,0.82932 z"
         style="font-style:normal;font-variant:normal;font-weight:normal;font-stretch:normal;font-size:9.75674343px;line-height:0;font-family:'Cabin Condensed';-inkscape-font-specification:'Cabin Condensed, ';fill:#ffffff;fill-opacity:1;stroke-width:0.20988151"
         id="path2023" />
      <path
         d="m 168.06355,175.8627 q -0.83908,0 -1.45375,-0.39027 l 0.10732,-0.85859 q 0.62443,0.48783 1.28789,0.48783 0.35125,0 0.54638,-0.14635 0.20489,-0.14635 0.20489,-0.42929 0,-0.21465 -0.0976,-0.35125 -0.0878,-0.13659 -0.30246,-0.26343 -0.21465,-0.12684 -0.66346,-0.33173 -0.52687,-0.24392 -0.77079,-0.55613 -0.24391,-0.31222 -0.24391,-0.80981 0,-0.58541 0.40978,-0.95616 0.40978,-0.37076 1.10251,-0.37076 0.70249,0 1.22935,0.31222 l -0.10732,0.79029 q -0.26344,-0.17562 -0.4976,-0.25367 -0.23416,-0.0878 -0.55613,-0.0878 -0.34149,0 -0.53662,0.14635 -0.19514,0.14635 -0.19514,0.40978 0,0.26343 0.16587,0.40003 0.17562,0.13659 0.67321,0.361 0.69273,0.31221 0.97568,0.63419 0.28294,0.31221 0.28294,0.82932 0,0.67321 -0.41954,1.05373 -0.41954,0.38051 -1.14154,0.38051 z"
         style="font-style:normal;font-variant:normal;font-weight:normal;font-stretch:normal;font-size:9.75674343px;line-height:0;font-family:'Cabin Condensed';-inkscape-font-specification:'Cabin Condensed, ';fill:#ffffff;fill-opacity:1;stroke-width:0.20988151"
         id="path2025" />
      <path
         d="m 172.40271,168.93541 h 0.89762 v 6.82972 h -0.89762 z"
         style="font-style:normal;font-variant:normal;font-weight:normal;font-stretch:normal;font-size:9.75674343px;line-height:0;font-family:'Cabin Condensed';-inkscape-font-specification:'Cabin Condensed, ';fill:#ffffff;fill-opacity:1;stroke-width:0.20988151"
         id="path2027" />
      <path
         d="m 174.74662,168.93541 h 1.75621 q 1.07324,0 1.66841,0.56589 0.60491,0.56589 0.60491,1.64889 0,1.083 -0.60491,1.65865 -0.59517,0.56589 -1.66841,0.56589 h -0.85859 v 2.3904 h -0.89762 z m 1.67816,3.61975 q 1.42448,0 1.42448,-1.40497 0,-1.40497 -1.42448,-1.40497 h -0.78054 v 2.80994 z"
         style="font-style:normal;font-variant:normal;font-weight:normal;font-stretch:normal;font-size:9.75674343px;line-height:0;font-family:'Cabin Condensed';-inkscape-font-specification:'Cabin Condensed, ';fill:#ffffff;fill-opacity:1;stroke-width:0.20988151"
         id="path2029" />
    </g>
  </g>
</svg>
